<svg width="141" height="45" viewBox="0 0 141 45" fill="none" xmlns="http://www.w3.org/2000/svg">
<path d="M39.105 42.135C38.625 42.135 38.21 42.035 37.86 41.835C37.51 41.635 37.215 41.18 36.975 40.47C36.735 39.76 36.615 38.695 36.615 37.275C36.615 35.615 36.755 34.35 37.035 33.48C37.315 32.61 37.66 32.04 38.07 31.77C38.49 31.5 38.975 31.365 39.525 31.365C39.815 31.365 40.065 31.405 40.275 31.485C40.485 31.565 40.64 31.665 40.74 31.785C40.85 31.895 40.905 32 40.905 32.1C40.905 32.17 40.89 32.245 40.86 32.325C40.84 32.405 40.81 32.47 40.77 32.52C40.67 32.42 40.51 32.31 40.29 32.19C40.08 32.07 39.845 32.01 39.585 32.01C39.145 32.01 38.765 32.135 38.445 32.385C38.125 32.625 37.855 33.135 37.635 33.915C37.425 34.695 37.32 35.825 37.32 37.305C37.32 38.425 37.405 39.29 37.575 39.9C37.755 40.5 37.98 40.905 38.25 41.115C38.53 41.315 38.85 41.415 39.21 41.415C39.54 41.415 39.855 41.34 40.155 41.19C40.465 41.03 40.695 40.855 40.845 40.665C40.935 40.845 40.98 40.995 40.98 41.115C40.98 41.255 40.895 41.405 40.725 41.565C40.555 41.725 40.325 41.86 40.035 41.97C39.755 42.08 39.445 42.135 39.105 42.135ZM43.992 42.15C43.452 42.15 43.017 42.06 42.687 41.88C42.357 41.69 42.102 41.315 41.922 40.755C41.742 40.185 41.652 39.355 41.652 38.265C41.652 35.655 42.487 34.35 44.157 34.35C44.697 34.35 45.132 34.465 45.462 34.695C45.802 34.925 46.057 35.325 46.227 35.895C46.397 36.465 46.482 37.25 46.482 38.25C46.482 39.56 46.267 40.54 45.837 41.19C45.417 41.83 44.802 42.15 43.992 42.15ZM44.007 41.55C44.567 41.55 44.997 41.28 45.297 40.74C45.607 40.2 45.762 39.36 45.762 38.22C45.762 37.36 45.697 36.69 45.567 36.21C45.447 35.73 45.267 35.4 45.027 35.22C44.797 35.04 44.497 34.95 44.127 34.95C43.557 34.95 43.122 35.21 42.822 35.73C42.522 36.24 42.372 37.11 42.372 38.34C42.372 39.2 42.432 39.865 42.552 40.335C42.682 40.795 42.862 41.115 43.092 41.295C43.322 41.465 43.627 41.55 44.007 41.55ZM47.886 35.01C48.506 34.57 49.171 34.35 49.881 34.35C50.231 34.35 50.501 34.395 50.691 34.485C50.881 34.575 50.976 34.69 50.976 34.83C50.976 34.9 50.966 34.975 50.946 35.055C50.926 35.135 50.901 35.2 50.871 35.25C50.601 35.09 50.301 35.01 49.971 35.01C49.421 35.01 48.951 35.16 48.561 35.46V41.82C48.561 41.88 48.546 41.925 48.516 41.955C48.496 41.975 48.431 41.99 48.321 42C48.211 42 48.066 42 47.886 42V35.01ZM52.4351 44.955C52.2251 44.955 52.1201 44.865 52.1201 44.685V34.965C52.7501 34.555 53.4701 34.35 54.2801 34.35C55.1001 34.35 55.7151 34.59 56.1251 35.07C56.5451 35.55 56.7551 36.375 56.7551 37.545C56.7551 39.335 56.4951 40.55 55.9751 41.19C55.4651 41.83 54.8751 42.15 54.2051 42.15C53.8951 42.15 53.6101 42.09 53.3501 41.97C53.1001 41.85 52.9151 41.715 52.7951 41.565V44.895C52.6851 44.935 52.5651 44.955 52.4351 44.955ZM54.0551 41.52C54.5551 41.52 55.0101 41.265 55.4201 40.755C55.8301 40.235 56.0351 39.225 56.0351 37.725C56.0351 37.005 55.9651 36.445 55.8251 36.045C55.6951 35.645 55.5001 35.365 55.2401 35.205C54.9901 35.045 54.6601 34.965 54.2501 34.965C53.7101 34.965 53.2251 35.1 52.7951 35.37V40.755C52.9351 41.005 53.1151 41.195 53.3351 41.325C53.5651 41.455 53.8051 41.52 54.0551 41.52ZM60.281 42.15C59.741 42.15 59.306 42.06 58.976 41.88C58.646 41.69 58.391 41.315 58.211 40.755C58.031 40.185 57.941 39.355 57.941 38.265C57.941 35.655 58.776 34.35 60.446 34.35C60.986 34.35 61.421 34.465 61.751 34.695C62.091 34.925 62.346 35.325 62.516 35.895C62.686 36.465 62.771 37.25 62.771 38.25C62.771 39.56 62.556 40.54 62.126 41.19C61.706 41.83 61.091 42.15 60.281 42.15ZM60.296 41.55C60.856 41.55 61.286 41.28 61.586 40.74C61.896 40.2 62.051 39.36 62.051 38.22C62.051 37.36 61.986 36.69 61.856 36.21C61.736 35.73 61.556 35.4 61.316 35.22C61.086 35.04 60.786 34.95 60.416 34.95C59.846 34.95 59.411 35.21 59.111 35.73C58.811 36.24 58.661 37.11 58.661 38.34C58.661 39.2 58.721 39.865 58.841 40.335C58.971 40.795 59.151 41.115 59.381 41.295C59.611 41.465 59.916 41.55 60.296 41.55ZM64.175 35.01C64.795 34.57 65.46 34.35 66.17 34.35C66.52 34.35 66.79 34.395 66.98 34.485C67.17 34.575 67.265 34.69 67.265 34.83C67.265 34.9 67.255 34.975 67.235 35.055C67.215 35.135 67.19 35.2 67.16 35.25C66.89 35.09 66.59 35.01 66.26 35.01C65.71 35.01 65.24 35.16 64.85 35.46V41.82C64.85 41.88 64.835 41.925 64.805 41.955C64.785 41.975 64.72 41.99 64.61 42C64.5 42 64.355 42 64.175 42V35.01ZM70.2391 42.15C69.5791 42.17 69.0541 42.035 68.6641 41.745C68.2741 41.455 68.0791 40.85 68.0791 39.93C68.0791 38.97 68.2891 38.325 68.7091 37.995C69.1291 37.665 69.6941 37.5 70.4041 37.5C70.9441 37.5 71.3641 37.555 71.6641 37.665V36.3C71.6641 35.8 71.5541 35.46 71.3341 35.28C71.1241 35.1 70.8091 35.01 70.3891 35.01C69.9191 35.01 69.4841 35.05 69.0841 35.13C68.6941 35.2 68.3891 35.285 68.1691 35.385C68.1091 35.265 68.0791 35.135 68.0791 34.995C68.0791 34.855 68.1141 34.765 68.1841 34.725C68.3541 34.625 68.6591 34.54 69.0991 34.47C69.5491 34.39 70.0291 34.35 70.5391 34.35C71.1491 34.35 71.5991 34.49 71.8891 34.77C72.1891 35.04 72.3391 35.505 72.3391 36.165V37.095C72.3391 38.925 72.3091 40.425 72.2491 41.595C71.6791 41.965 71.0091 42.15 70.2391 42.15ZM70.3591 41.55C70.6091 41.55 70.8491 41.51 71.0791 41.43C71.3191 41.35 71.4891 41.265 71.5891 41.175C71.6391 40.615 71.6641 39.62 71.6641 38.19C71.3741 38.09 71.0191 38.04 70.5991 38.04C70.2191 38.04 69.8991 38.085 69.6391 38.175C69.3891 38.255 69.1791 38.43 69.0091 38.7C68.8491 38.97 68.7691 39.375 68.7691 39.915C68.7691 40.395 68.8391 40.755 68.9791 40.995C69.1191 41.235 69.2991 41.39 69.5191 41.46C69.7391 41.52 70.0191 41.55 70.3591 41.55ZM75.9409 42.15C75.5509 42.15 75.2609 42.055 75.0709 41.865C74.8909 41.665 74.7759 41.405 74.7259 41.085C74.6759 40.765 74.6509 40.33 74.6509 39.78V35.115H73.4959C73.4959 34.845 73.5059 34.675 73.5259 34.605C73.5459 34.535 73.5909 34.5 73.6609 34.5H74.6509V32.1C74.6509 31.96 74.6859 31.875 74.7559 31.845C74.8359 31.815 75.0259 31.8 75.3259 31.8V34.5H77.2309C77.2309 34.78 77.2209 34.955 77.2009 35.025C77.1909 35.085 77.1509 35.115 77.0809 35.115H75.3259V39.81C75.3259 40.22 75.3359 40.54 75.3559 40.77C75.3859 41 75.4559 41.185 75.5659 41.325C75.6759 41.465 75.8459 41.535 76.0759 41.535C76.2759 41.535 76.4409 41.515 76.5709 41.475C76.7109 41.435 76.8759 41.37 77.0659 41.28C77.1059 41.39 77.1259 41.515 77.1259 41.655C77.1259 41.815 77.0059 41.935 76.7659 42.015C76.5359 42.105 76.2609 42.15 75.9409 42.15ZM80.5472 41.49C80.8972 41.49 81.2322 41.445 81.5522 41.355C81.8822 41.255 82.1622 41.125 82.3922 40.965C82.4522 41.125 82.4822 41.285 82.4822 41.445C82.4822 41.545 82.3872 41.655 82.1972 41.775C82.0072 41.885 81.7572 41.975 81.4472 42.045C81.1372 42.115 80.8072 42.15 80.4572 42.15C79.9172 42.15 79.4722 42.065 79.1222 41.895C78.7722 41.725 78.4922 41.385 78.2822 40.875C78.0822 40.365 77.9822 39.63 77.9822 38.67C77.9822 37.46 78.1122 36.54 78.3722 35.91C78.6322 35.27 78.9522 34.85 79.3322 34.65C79.7222 34.45 80.1672 34.35 80.6672 34.35C81.3072 34.35 81.7772 34.56 82.0772 34.98C82.3872 35.39 82.5422 35.97 82.5422 36.72C82.5422 37.45 82.5022 38.03 82.4222 38.46C81.8322 38.57 81.1772 38.645 80.4572 38.685C79.7372 38.715 79.1372 38.725 78.6572 38.715C78.6572 39.495 78.7322 40.085 78.8822 40.485C79.0322 40.885 79.2422 41.155 79.5122 41.295C79.7822 41.425 80.1272 41.49 80.5472 41.49ZM80.6222 34.965C80.0922 34.965 79.6472 35.175 79.2872 35.595C78.9272 36.005 78.7222 36.85 78.6722 38.13H79.1522C80.3522 38.13 81.2422 38.06 81.8222 37.92C81.8622 37.59 81.8822 37.245 81.8822 36.885C81.8722 36.225 81.7772 35.74 81.5972 35.43C81.4172 35.12 81.0922 34.965 80.6222 34.965ZM92.2418 34.35C92.7218 34.35 93.0818 34.435 93.3218 34.605C93.5618 34.765 93.7218 35 93.8018 35.31C93.8818 35.61 93.9218 36.025 93.9218 36.555V41.82C93.9218 41.89 93.9118 41.935 93.8918 41.955C93.8718 41.975 93.8068 41.99 93.6968 42C93.5868 42 93.4368 42 93.2468 42V36.48C93.2468 35.92 93.1768 35.53 93.0368 35.31C92.8968 35.08 92.6068 34.965 92.1668 34.965C91.5968 34.965 91.0868 35.12 90.6368 35.43V41.82C90.6368 41.89 90.6268 41.935 90.6068 41.955C90.5868 41.975 90.5218 41.99 90.4118 42C90.3018 42 90.1518 42 89.9618 42V36.465C89.9618 36.065 89.9418 35.77 89.9018 35.58C89.8618 35.38 89.7618 35.23 89.6018 35.13C89.4518 35.02 89.1968 34.965 88.8368 34.965C88.3268 34.965 87.8168 35.08 87.3068 35.31V41.82C87.3068 41.88 87.2918 41.925 87.2618 41.955C87.2418 41.975 87.1768 41.99 87.0668 42C86.9568 42 86.8118 42 86.6318 42V34.845C87.3818 34.515 88.1168 34.35 88.8368 34.35C89.5668 34.35 90.0618 34.535 90.3218 34.905C90.5818 34.735 90.8868 34.6 91.2368 34.5C91.5868 34.4 91.9218 34.35 92.2418 34.35ZM98.0814 41.49C98.4314 41.49 98.7664 41.445 99.0864 41.355C99.4164 41.255 99.6964 41.125 99.9264 40.965C99.9864 41.125 100.016 41.285 100.016 41.445C100.016 41.545 99.9214 41.655 99.7314 41.775C99.5414 41.885 99.2914 41.975 98.9814 42.045C98.6714 42.115 98.3414 42.15 97.9914 42.15C97.4514 42.15 97.0064 42.065 96.6564 41.895C96.3064 41.725 96.0264 41.385 95.8164 40.875C95.6164 40.365 95.5164 39.63 95.5164 38.67C95.5164 37.46 95.6464 36.54 95.9064 35.91C96.1664 35.27 96.4864 34.85 96.8664 34.65C97.2564 34.45 97.7014 34.35 98.2014 34.35C98.8414 34.35 99.3114 34.56 99.6114 34.98C99.9214 35.39 100.076 35.97 100.076 36.72C100.076 37.45 100.036 38.03 99.9564 38.46C99.3664 38.57 98.7114 38.645 97.9914 38.685C97.2714 38.715 96.6714 38.725 96.1914 38.715C96.1914 39.495 96.2664 40.085 96.4164 40.485C96.5664 40.885 96.7764 41.155 97.0464 41.295C97.3164 41.425 97.6614 41.49 98.0814 41.49ZM98.1564 34.965C97.6264 34.965 97.1814 35.175 96.8214 35.595C96.4614 36.005 96.2564 36.85 96.2064 38.13H96.6864C97.8864 38.13 98.7764 38.06 99.3564 37.92C99.3964 37.59 99.4164 37.245 99.4164 36.885C99.4064 36.225 99.3114 35.74 99.1314 35.43C98.9514 35.12 98.6264 34.965 98.1564 34.965ZM103.135 42.15C102.565 42.15 102.105 42.09 101.755 41.97C101.405 41.85 101.23 41.705 101.23 41.535C101.23 41.365 101.28 41.225 101.38 41.115C101.61 41.255 101.855 41.36 102.115 41.43C102.385 41.49 102.71 41.52 103.09 41.52C103.64 41.52 104.07 41.415 104.38 41.205C104.69 40.995 104.845 40.68 104.845 40.26C104.845 39.95 104.77 39.67 104.62 39.42C104.48 39.17 104.25 38.93 103.93 38.7L102.295 37.605C101.885 37.335 101.61 37.085 101.47 36.855C101.34 36.615 101.275 36.34 101.275 36.03C101.275 35.51 101.495 35.1 101.935 34.8C102.375 34.5 102.96 34.35 103.69 34.35C104.11 34.35 104.465 34.395 104.755 34.485C105.055 34.565 105.275 34.66 105.415 34.77C105.555 34.88 105.625 34.98 105.625 35.07C105.625 35.18 105.565 35.31 105.445 35.46C105.175 35.29 104.905 35.165 104.635 35.085C104.375 35.005 104.08 34.965 103.75 34.965C103.24 34.965 102.82 35.06 102.49 35.25C102.17 35.43 102.01 35.685 102.01 36.015C102.01 36.225 102.065 36.415 102.175 36.585C102.285 36.745 102.495 36.93 102.805 37.14L104.515 38.28C104.885 38.57 105.155 38.865 105.325 39.165C105.495 39.455 105.58 39.785 105.58 40.155C105.58 40.805 105.365 41.3 104.935 41.64C104.505 41.98 103.905 42.15 103.135 42.15ZM108.789 42.15C108.219 42.15 107.759 42.09 107.409 41.97C107.059 41.85 106.884 41.705 106.884 41.535C106.884 41.365 106.934 41.225 107.034 41.115C107.264 41.255 107.509 41.36 107.769 41.43C108.039 41.49 108.364 41.52 108.744 41.52C109.294 41.52 109.724 41.415 110.034 41.205C110.344 40.995 110.499 40.68 110.499 40.26C110.499 39.95 110.424 39.67 110.274 39.42C110.134 39.17 109.904 38.93 109.584 38.7L107.949 37.605C107.539 37.335 107.264 37.085 107.124 36.855C106.994 36.615 106.929 36.34 106.929 36.03C106.929 35.51 107.149 35.1 107.589 34.8C108.029 34.5 108.614 34.35 109.344 34.35C109.764 34.35 110.119 34.395 110.409 34.485C110.709 34.565 110.929 34.66 111.069 34.77C111.209 34.88 111.279 34.98 111.279 35.07C111.279 35.18 111.219 35.31 111.099 35.46C110.829 35.29 110.559 35.165 110.289 35.085C110.029 35.005 109.734 34.965 109.404 34.965C108.894 34.965 108.474 35.06 108.144 35.25C107.824 35.43 107.664 35.685 107.664 36.015C107.664 36.225 107.719 36.415 107.829 36.585C107.939 36.745 108.149 36.93 108.459 37.14L110.169 38.28C110.539 38.57 110.809 38.865 110.979 39.165C111.149 39.455 111.234 39.785 111.234 40.155C111.234 40.805 111.019 41.3 110.589 41.64C110.159 41.98 109.559 42.15 108.789 42.15ZM115.074 41.49C115.424 41.49 115.759 41.445 116.079 41.355C116.409 41.255 116.689 41.125 116.919 40.965C116.979 41.125 117.009 41.285 117.009 41.445C117.009 41.545 116.914 41.655 116.724 41.775C116.534 41.885 116.284 41.975 115.974 42.045C115.664 42.115 115.334 42.15 114.984 42.15C114.444 42.15 113.999 42.065 113.649 41.895C113.299 41.725 113.019 41.385 112.809 40.875C112.609 40.365 112.509 39.63 112.509 38.67C112.509 37.46 112.639 36.54 112.899 35.91C113.159 35.27 113.479 34.85 113.859 34.65C114.249 34.45 114.694 34.35 115.194 34.35C115.834 34.35 116.304 34.56 116.604 34.98C116.914 35.39 117.069 35.97 117.069 36.72C117.069 37.45 117.029 38.03 116.949 38.46C116.359 38.57 115.704 38.645 114.984 38.685C114.264 38.715 113.664 38.725 113.184 38.715C113.184 39.495 113.259 40.085 113.409 40.485C113.559 40.885 113.769 41.155 114.039 41.295C114.309 41.425 114.654 41.49 115.074 41.49ZM115.149 34.965C114.619 34.965 114.174 35.175 113.814 35.595C113.454 36.005 113.249 36.85 113.199 38.13H113.679C114.879 38.13 115.769 38.06 116.349 37.92C116.389 37.59 116.409 37.245 116.409 36.885C116.399 36.225 116.304 35.74 116.124 35.43C115.944 35.12 115.619 34.965 115.149 34.965ZM118.462 34.875C119.322 34.525 120.137 34.35 120.907 34.35C121.687 34.35 122.222 34.515 122.512 34.845C122.802 35.165 122.947 35.695 122.947 36.435V41.82C122.947 41.89 122.937 41.935 122.917 41.955C122.897 41.975 122.827 41.99 122.707 42C122.597 42 122.447 42 122.257 42V36.6C122.257 36 122.162 35.58 121.972 35.34C121.792 35.09 121.432 34.965 120.892 34.965C120.622 34.965 120.322 35 119.992 35.07C119.662 35.13 119.377 35.22 119.137 35.34V41.82C119.137 41.89 119.127 41.935 119.107 41.955C119.087 41.975 119.022 41.99 118.912 42C118.802 42 118.652 42 118.462 42V34.875ZM127.525 41.16C128.165 41.25 128.66 41.41 129.01 41.64C129.36 41.86 129.535 42.24 129.535 42.78C129.535 43.16 129.425 43.515 129.205 43.845C128.995 44.185 128.67 44.455 128.23 44.655C127.79 44.865 127.255 44.97 126.625 44.97C125.725 44.97 125.105 44.82 124.765 44.52C124.425 44.23 124.255 43.85 124.255 43.38C124.255 43.04 124.38 42.695 124.63 42.345C124.88 41.995 125.18 41.695 125.53 41.445C124.84 41.265 124.495 41.01 124.495 40.68C124.495 40.49 124.585 40.275 124.765 40.035C124.955 39.795 125.185 39.57 125.455 39.36C124.815 38.98 124.495 38.21 124.495 37.05C124.495 36.17 124.725 35.5 125.185 35.04C125.645 34.58 126.235 34.35 126.955 34.35C127.175 34.35 127.41 34.38 127.66 34.44H129.49C129.54 34.51 129.565 34.61 129.565 34.74C129.565 34.93 129.46 35.025 129.25 35.025C129.05 35.025 128.74 34.995 128.32 34.935C128.62 35.095 128.85 35.34 129.01 35.67C129.18 35.99 129.265 36.39 129.265 36.87C129.265 37.7 129.065 38.38 128.665 38.91C128.265 39.43 127.655 39.69 126.835 39.69C126.495 39.69 126.19 39.65 125.92 39.57C125.73 39.72 125.56 39.885 125.41 40.065C125.27 40.235 125.2 40.385 125.2 40.515C125.2 40.765 125.975 40.98 127.525 41.16ZM126.925 34.905C126.425 34.905 126.01 35.09 125.68 35.46C125.35 35.82 125.185 36.35 125.185 37.05C125.185 37.7 125.3 38.21 125.53 38.58C125.76 38.94 126.21 39.12 126.88 39.12C127.44 39.12 127.865 38.895 128.155 38.445C128.445 37.995 128.59 37.435 128.59 36.765C128.59 36.145 128.445 35.68 128.155 35.37C127.865 35.06 127.455 34.905 126.925 34.905ZM126.67 44.325C127.13 44.325 127.525 44.255 127.855 44.115C128.185 43.975 128.435 43.79 128.605 43.56C128.775 43.34 128.86 43.105 128.86 42.855C128.86 42.455 128.72 42.18 128.44 42.03C128.16 41.88 127.735 41.78 127.165 41.73C126.695 41.67 126.34 41.62 126.1 41.58C125.79 41.79 125.515 42.055 125.275 42.375C125.045 42.695 124.93 42.995 124.93 43.275C124.93 43.605 125.05 43.86 125.29 44.04C125.54 44.23 126 44.325 126.67 44.325ZM132.827 41.49C133.177 41.49 133.512 41.445 133.832 41.355C134.162 41.255 134.442 41.125 134.672 40.965C134.732 41.125 134.762 41.285 134.762 41.445C134.762 41.545 134.667 41.655 134.477 41.775C134.287 41.885 134.037 41.975 133.727 42.045C133.417 42.115 133.087 42.15 132.737 42.15C132.197 42.15 131.752 42.065 131.402 41.895C131.052 41.725 130.772 41.385 130.562 40.875C130.362 40.365 130.262 39.63 130.262 38.67C130.262 37.46 130.392 36.54 130.652 35.91C130.912 35.27 131.232 34.85 131.612 34.65C132.002 34.45 132.447 34.35 132.947 34.35C133.587 34.35 134.057 34.56 134.357 34.98C134.667 35.39 134.822 35.97 134.822 36.72C134.822 37.45 134.782 38.03 134.702 38.46C134.112 38.57 133.457 38.645 132.737 38.685C132.017 38.715 131.417 38.725 130.937 38.715C130.937 39.495 131.012 40.085 131.162 40.485C131.312 40.885 131.522 41.155 131.792 41.295C132.062 41.425 132.407 41.49 132.827 41.49ZM132.902 34.965C132.372 34.965 131.927 35.175 131.567 35.595C131.207 36.005 131.002 36.85 130.952 38.13H131.432C132.632 38.13 133.522 38.06 134.102 37.92C134.142 37.59 134.162 37.245 134.162 36.885C134.152 36.225 134.057 35.74 133.877 35.43C133.697 35.12 133.372 34.965 132.902 34.965ZM136.216 35.01C136.836 34.57 137.501 34.35 138.211 34.35C138.561 34.35 138.831 34.395 139.021 34.485C139.211 34.575 139.306 34.69 139.306 34.83C139.306 34.9 139.296 34.975 139.276 35.055C139.256 35.135 139.231 35.2 139.201 35.25C138.931 35.09 138.631 35.01 138.301 35.01C137.751 35.01 137.281 35.16 136.891 35.46V41.82C136.891 41.88 136.876 41.925 136.846 41.955C136.826 41.975 136.761 41.99 136.651 42C136.541 42 136.396 42 136.216 42V35.01Z" fill="#1B1B1B"/>
<path d="M65.7539 0.414062L73.4492 21.6836L73.957 23.3828H74.0742L74.582 21.6836L82.2578 0.414062H84.543L74.9922 26H73.0195L63.4688 0.414062H65.7539ZM104.855 15.3359V11.1367C104.855 8.32422 104.146 6.08464 102.727 4.41797C101.32 2.7513 99.3932 1.91797 96.9453 1.91797C94.4974 1.91797 92.5898 2.7513 91.2227 4.41797C89.8685 6.07161 89.1914 8.3112 89.1914 11.1367V15.3359C89.1914 18.1745 89.875 20.4271 91.2422 22.0938C92.6094 23.7474 94.5169 24.5742 96.9648 24.5742C99.4258 24.5742 101.353 23.7474 102.746 22.0938C104.152 20.4271 104.855 18.1745 104.855 15.3359ZM106.945 11.1758V15.3359C106.945 18.6693 106.04 21.3516 104.23 23.3828C102.421 25.401 99.9987 26.4102 96.9648 26.4102C93.944 26.4102 91.5417 25.401 89.7578 23.3828C87.974 21.3516 87.082 18.6693 87.082 15.3359V11.1758C87.082 7.84245 87.9674 5.16016 89.7383 3.12891C91.5221 1.09766 93.9245 0.0820312 96.9453 0.0820312C99.9792 0.0820312 102.401 1.09766 104.211 3.12891C106.034 5.16016 106.945 7.84245 106.945 11.1758ZM114.582 0.414062V24.2227H127.238V26H112.473V0.414062H114.582Z" fill="#343434"/>
<rect x="0.5" y="1.5" width="35.3635" height="14.9999" rx="7.49997" stroke="#679AFD"/>
<rect x="20.8636" y="9.5" width="35.3635" height="14.9999" rx="7.49997" fill="#679AFD" stroke="#679AFD"/>
</svg>
